# xmcd
#
# Track frame offsets:
#  150
#  13995
#  32506
#  45991
#  58323
#  72956
#  91402
#  106969
#  120786
#  133732
#  150322
#
# Disc length: 2220 seconds
#
# Revision: 0
# Processed by: cddbd v1.5.2PL0 Copyright (c) Steve Scherf et al.
# Submitted via: Collectorz.com_Music_Collector 6.9
#
DISCID=8608aa0b
DTITLE=Anderson, Mike - Real Country
DYEAR=2007
DGENRE=Contemporary Country
TTITLE0=Heartaches By The Number
TTITLE1=My Heartache Hall Of Fame
TTITLE2=Rodeo Cowboy Association
TTITLE3=Green Grass Of Home
TTITLE4=Those Unemployment Blues
TTITLE5=The Thought Of Loving You
TTITLE6=Auctioneer
TTITLE7=The Mountain
TTITLE8=In The Jailhouse Now
TTITLE9=Midnight At The Old Soldiers' Home
TTITLE10=Red River Valley
EXTD=
EXTT0=
EXTT1=
EXTT2=
EXTT3=
EXTT4=
EXTT5=
EXTT6=
EXTT7=
EXTT8=
EXTT9=
EXTT10=
PLAYORDER=
